<svg xmlns="http://www.w3.org/2000/svg" width="40.721" height="27.919" viewBox="0 0 40.721 27.919">
  <g id="Grupo_80ssss" data-name="Grupo 80ssss" transform="translate(-18.635 -65.998)">
    <path id="Caminho_160" data-name="Caminho 160" d="M1.829,0H25.6V10.125H1.829A1.935,1.935,0,0,1,0,8.1V2.025A1.935,1.935,0,0,1,1.829,0Z" transform="translate(32.385 74.894)" fill="#b3f700"/>
    <g id="Caminho_159" data-name="Caminho 159" transform="translate(34.117 73.9)">
      <path id="Caminho_163" data-name="Caminho 163" d="M1.731,0H22.506a1.731,1.731,0,0,1,1.731,1.731v8.656a1.731,1.731,0,0,1-1.731,1.731H1.731A1.731,1.731,0,0,1,0,10.388V1.731A1.731,1.731,0,0,1,1.731,0Z" fill="none"/>
      <path id="Caminho_164" data-name="Caminho 164" d="M2,2v8.119M1.731,0H22.507a1.731,1.731,0,0,1,1.731,1.731v8.656a1.731,1.731,0,0,1-1.731,1.731H1.731A1.731,1.731,0,0,1,0,10.388V1.731A1.731,1.731,0,0,1,1.731,0Z" fill="none" stroke="#000" stroke-width="2"/>
    </g>
    <path id="Caminho_156" data-name="Caminho 156" d="M11.791.758a2.051,2.051,0,0,1,3.185,0L26.078,15.9c-.773,0-.018,1.624-.981,1.624-18.365,0-5.4.2-20.827,0-.832-.011-1.508,0-2.959,0-.493,0-.778-2.813-.778-2.813S4.968,9.563,11.791.758Z" transform="translate(20.043 93.113) rotate(-90)" fill="#b3f700"/>
    <g id="Caminho_157" data-name="Caminho 157" transform="translate(19.635 92.884) rotate(-90)">
      <path id="Caminho_165" data-name="Caminho 165" d="M11.555.673a1.731,1.731,0,0,1,2.74,0l11.19,14.481a1.731,1.731,0,0,1-1.37,2.79H1.734a1.731,1.731,0,0,1-1.37-2.79Z" fill="none"/>
      <path id="Caminho_166" data-name="Caminho 166" d="M12.925,0A1.722,1.722,0,0,1,14.3.673L25.49,15.154a1.731,1.731,0,0,1-1.37,2.79H1.734a1.731,1.731,0,0,1-1.37-2.79L11.555.673A1.722,1.722,0,0,1,12.925,0Z" fill="none" stroke="#000" stroke-width="2"/>
    </g>
    <path id="Caminho_158" data-name="Caminho 158" d="M-.125-.5H7.646V9.625H.186Z" transform="translate(34.025 75.394)" fill="#b3f700"/>
  </g>
</svg>
