<svg id="barras" xmlns="http://www.w3.org/2000/svg" width="65" height="65" viewBox="0 0 65 65">
  <g id="Grupo_43" data-name="Grupo 43" transform="translate(34.7 1.428)">
    <rect id="Retângulo_87" data-name="Retângulo 87" width="9" height="19.5" transform="translate(0 43.334)" fill="#b3f700"/>
    <circle id="Elipse_13" data-name="Elipse 13" cx="7.944" cy="7.944" r="7.944" transform="translate(10.722 0)" fill="#b3f700"/>
  </g>
  <path id="Caminho_78" data-name="Caminho 78" d="M51.778,17.944a2.709,2.709,0,0,1-.389-.167l-.167-.111v-.222l.111-1.055L51.389,16l.334.167c.056,0,.111.056.167.056s.111.056.167.056a1.03,1.03,0,0,0,.389.111c.111.056.278.056.389.111.111,0,.222.056.334.056a.7.7,0,0,1,.334.056h.448a.416.416,0,0,0,.278-.056h0c.111,0,.167-.056.278-.111h0a.767.767,0,0,0,.222-.167h0a.767.767,0,0,0,.167-.222h0c.056-.056.056-.167.111-.222v-.278h0a.5.5,0,0,0-.056-.278h0c-.056-.056-.056-.167-.111-.222l-.167-.167a.767.767,0,0,0-.222-.167.421.421,0,0,0-.222-.111c-.056-.056-.167-.056-.278-.111h0a1.972,1.972,0,0,1-.5-.222h0c-.167-.056-.334-.167-.5-.222a1.209,1.209,0,0,1-.448-.278c-.111-.111-.278-.167-.389-.334h0l-.334-.334h0c-.111-.111-.167-.278-.278-.389h0l-.167-.5a1.539,1.539,0,0,1-.056-.5h0a2.279,2.279,0,0,1,.056-.611c.056-.167.111-.389.167-.556a2.252,2.252,0,0,1,.278-.5,2.78,2.78,0,0,1,.389-.448h0c.167-.111.278-.222.448-.334h0a1.972,1.972,0,0,1,.5-.222h.05V7.833H54.61V9h.111c.111,0,.167.056.278.056a2.406,2.406,0,0,1,.278.056c.056,0,.167.056.222.056h0c.056,0,.111.056.222.056l.222.056-.056.222-.111,1-.056.334-.334-.111c-.056,0-.111-.056-.222-.056h0c-.056,0-.111-.056-.222-.056h0c-.111,0-.222-.056-.334-.056s-.222-.056-.334-.056h-.448a.7.7,0,0,0-.334.056h0c-.111.056-.167.056-.278.111-.056.056-.167.111-.222.167a.421.421,0,0,0-.111.222h0a.416.416,0,0,0-.056.278v.278c0,.111.056.167.056.278.056.056.056.167.111.222h0l.167.167h0c.056.056.167.111.222.167h0c.056.056.167.056.222.111.111.056.167.056.278.111h0a1.973,1.973,0,0,1,.5.222c.167.056.334.167.5.222a1.949,1.949,0,0,1,.448.278,2.421,2.421,0,0,1,.389.334l.334.334h0a1.393,1.393,0,0,1,.222.389,3.826,3.826,0,0,0,.167.448h0a1.539,1.539,0,0,1,.056.5h0a2.279,2.279,0,0,1-.056.611h0c-.056.222-.111.389-.167.556a2.252,2.252,0,0,1-.278.5,1.3,1.3,0,0,1-.389.389h0l-.5.334a2.322,2.322,0,0,1-.556.222H54.5v1.216H53.055V18.057h-.111c-.167,0-.334-.056-.5-.056-.167-.056-.334-.056-.448-.111h0c.056.111-.111.056-.222.056" transform="translate(0 -4.667)"/>
  <g id="Grupo_44" data-name="Grupo 44" transform="translate(0 0)">
    <path id="Caminho_79" data-name="Caminho 79" d="M53.945,22.555A8.944,8.944,0,1,0,45,13.666a8.944,8.944,0,0,0,8.944,8.889Zm0-15.833A6.945,6.945,0,1,1,47,13.667a6.945,6.945,0,0,1,6.945-6.945Z" transform="translate(0 -4.667)" fill="#fff"/>
    <path id="Caminho_80" data-name="Caminho 80" d="M11.444,37.778A.939.939,0,0,0,12,37.611l13.278-9.5,12.833,5.334a1.063,1.063,0,0,0,1-.111l10.334-8.163a.989.989,0,1,0-1.222-1.556l-9.889,7.833L25.552,26.111a.957.957,0,0,0-.944.111L10.889,36a.986.986,0,0,0-.22,1.386A.9.9,0,0,0,11.444,37.778Z" transform="translate(0 0.17)" fill="#fff"/>
    <path id="Caminho_81" data-name="Caminho 81" d="M64,57.278H59.441V28.947a1,1,0,0,0-1-1h-9a1,1,0,0,0-1,1V57.278H45.111V38.722a1,1,0,0,0-1-1H35.166a1,1,0,0,0-1,1V57.281H30.833v-20a1,1,0,0,0-1-1h-9a1,1,0,0,0-1,1v20H16.5V43a1,1,0,0,0-1-1H6.556a1,1,0,0,0-1,1V57.278H1a1,1,0,0,0,0,2H64a1,1,0,0,0,1-1,1.033,1.033,0,0,0-1-1ZM50.444,29.889H57.5V57.278H50.444ZM36.111,39.723h7.056V57.278H36.111Zm-14.278-1.5H28.89v19H21.834ZM7.555,43.944h7.059V57.222H7.555Z" transform="translate(0 5.722)" fill="#fff"/>
  </g>
</svg>
