<svg xmlns="http://www.w3.org/2000/svg" width="20.318" height="19.817" viewBox="0 0 20.318 19.817">
  <path id="Github01" d="M10.159,0A10.16,10.16,0,0,0,6.948,19.8c.507.094.671-.221.671-.488V17.419c-2.826.615-3.414-1.2-3.414-1.2a2.691,2.691,0,0,0-1.128-1.487c-.922-.631.07-.617.07-.617A2.133,2.133,0,0,1,4.7,15.164a2.162,2.162,0,0,0,2.956.844A2.155,2.155,0,0,1,8.3,14.65c-2.256-.258-4.628-1.129-4.628-5.021A3.932,3.932,0,0,1,4.723,6.9a3.654,3.654,0,0,1,.1-2.689s.853-.273,2.795,1.041a9.629,9.629,0,0,1,5.087,0c1.939-1.314,2.791-1.041,2.791-1.041a3.651,3.651,0,0,1,.1,2.689A3.921,3.921,0,0,1,16.64,9.629c0,3.9-2.376,4.761-4.638,5.013a2.428,2.428,0,0,1,.7,1.881V19.31c0,.27.163.588.678.488A10.161,10.161,0,0,0,10.159,0Z" fill="#b3f700"/>
</svg>
