<svg xmlns="http://www.w3.org/2000/svg" width="16.436" height="14.125" viewBox="0 0 16.436 14.125">
  <g id="InfoIco" transform="translate(56 787)">
    <g id="Grupo_52" data-name="Grupo 52" transform="translate(-39.564 -787) rotate(90)">
      <path id="Caminho_111" data-name="Caminho 111" d="M5.129,0a6.616,6.616,0,1,1,0,13.231A6.731,6.731,0,0,1,2.8,12.8a6.635,6.635,0,0,1-4-4.441c-.132-.434-2.536-1.079-2.536-1.748,0-.566,2.377-1.116,2.557-1.823A6.481,6.481,0,0,1,5.129,0Z" transform="translate(0.601 11.942) rotate(-90)" fill="#00b3df"/>
      <g id="Grupo_51" data-name="Grupo 51">
        <path id="Caminho_105" data-name="Caminho 105" d="M7.062,0A7.059,7.059,0,0,0,4.925,13.787l1.606,2.367a.642.642,0,0,0,1.063,0L9.2,13.787A7.059,7.059,0,0,0,7.062,0ZM8.624,12.619a.642.642,0,0,0-.358.258l-1.2,1.773-1.2-1.773a.642.642,0,0,0-.358-.258,5.778,5.778,0,1,1,3.123,0Z" fill="#13181b"/>
      </g>
      <g id="Grupo_53" data-name="Grupo 53" transform="translate(4.013 7.704) rotate(-90)">
        <path id="Caminho_109" data-name="Caminho 109" d="M.642,0a.642.642,0,1,0,.642.642A.643.643,0,0,0,.642,0Z" transform="translate(0 0)" fill="#fff"/>
        <path id="Caminho_110" data-name="Caminho 110" d="M.482,0A.482.482,0,0,0,0,.482V3.371a.482.482,0,0,0,.963,0V.482A.482.482,0,0,0,.482,0Z" transform="translate(0.16 2.247)" fill="#fff"/>
      </g>
    </g>
  </g>
</svg>
