<svg xmlns="http://www.w3.org/2000/svg" width="15.838" height="15.838" viewBox="0 0 15.838 15.838">
  <path id="Instagram" d="M7.919,1.427c2.114,0,2.365.008,3.2.046,2.146.1,3.148,1.116,3.246,3.246.038.835.046,1.086.046,3.2s-.008,2.365-.046,3.2c-.1,2.128-1.1,3.148-3.246,3.246-.835.038-1.085.046-3.2.046s-2.365-.008-3.2-.046c-2.151-.1-3.148-1.121-3.246-3.247-.038-.835-.046-1.085-.046-3.2s.009-2.364.046-3.2c.1-2.13,1.1-3.148,3.246-3.246.835-.038,1.086-.046,3.2-.046ZM7.919,0C5.768,0,5.5.009,4.654.048,1.778.179.18,1.775.048,4.654.009,5.5,0,5.768,0,7.919s.009,2.421.048,3.265c.132,2.876,1.728,4.474,4.606,4.606.845.038,1.115.048,3.265.048s2.421-.009,3.265-.048c2.873-.132,4.475-1.728,4.605-4.606.039-.845.048-1.115.048-3.265s-.009-2.42-.048-3.265C15.661,1.781,14.063.18,11.185.048,10.339.009,10.069,0,7.919,0Zm0,3.853a4.067,4.067,0,1,0,4.066,4.066A4.066,4.066,0,0,0,7.919,3.853Zm0,6.706a2.64,2.64,0,1,1,2.64-2.64A2.639,2.639,0,0,1,7.919,10.558Zm4.227-7.817a.95.95,0,1,0,.95.95A.951.951,0,0,0,12.146,2.742Z" fill="#b3f700"/>
</svg>
