<svg xmlns="http://www.w3.org/2000/svg" width="19.817" height="19.817" viewBox="0 0 19.817 19.817">
  <path id="Linkedin_rounded" data-name="Linkedin rounded" d="M9.908,1.651A8.257,8.257,0,1,1,1.651,9.908,8.266,8.266,0,0,1,9.908,1.651ZM9.908,0a9.908,9.908,0,1,0,9.908,9.908A9.909,9.909,0,0,0,9.908,0ZM8.257,6.606a.826.826,0,1,1-.826-.832A.828.828,0,0,1,8.257,6.606Zm0,1.651H6.606v4.954H8.257Zm2.477,0H9.083v4.954h1.651V10.849c0-1.422,1.653-1.553,1.653,0v2.362h1.65V10.438c0-2.712-2.583-2.612-3.3-1.278v-.9Z" fill="#b3f700"/>
</svg>
