<svg id="login" xmlns="http://www.w3.org/2000/svg" width="24" height="24" viewBox="0 0 24 24">
  <path id="Caminho_117" data-name="Caminho 117" d="M0,2.359,8.14,0l.551,19.721L0,22.385Z" transform="translate(14.754 1.017)" fill="#b3f700"/>
  <path id="Caminho_112" data-name="Caminho 112" d="M10.25,209.5H.75a.75.75,0,0,1,0-1.5h9.5a.75.75,0,0,1,0,1.5Zm0,0" transform="translate(0 -198.25)" fill="#e9ebea"/>
  <path id="Caminho_113" data-name="Caminho 113" d="M123.422,136.985a.75.75,0,0,1-.53-1.281l3.22-3.22-3.22-3.219a.75.75,0,1,1,1.061-1.061l3.75,3.75a.75.75,0,0,1,0,1.061l-3.75,3.75A.749.749,0,0,1,123.422,136.985Zm0,0" transform="translate(-116.922 -121.985)" fill="#e9ebea"/>
  <path id="Caminho_114" data-name="Caminho 114" d="M300.668,24.079a2,2,0,0,1-2-2v-18a2.013,2.013,0,0,1,1.354-1.9l6.008-2a2.021,2.021,0,0,1,2.638,1.9v18a2.013,2.013,0,0,1-1.353,1.9l-6.01,2a2.092,2.092,0,0,1-.637.1Zm6-22.5a.588.588,0,0,0-.179.026L300.506,3.6a.516.516,0,0,0-.338.479v18a.527.527,0,0,0,.679.474l5.983-1.995a.517.517,0,0,0,.338-.479v-18A.5.5,0,0,0,306.668,1.579Zm0,0" transform="translate(-284.668 -0.079)" fill="#e9ebea"/>
  <path id="Caminho_115" data-name="Caminho 115" d="M171.418,5a.75.75,0,0,1-.75-.75V2.75A2.752,2.752,0,0,1,173.418,0h11.25a.75.75,0,0,1,0,1.5h-11.25a1.252,1.252,0,0,0-1.25,1.25v1.5A.75.75,0,0,1,171.418,5Zm0,0" transform="translate(-162.668 0)" fill="#e9ebea"/>
  <path id="Caminho_116" data-name="Caminho 116" d="M177.418,346.332h-4a2.752,2.752,0,0,1-2.75-2.75v-1.5a.75.75,0,0,1,1.5,0v1.5a1.252,1.252,0,0,0,1.25,1.25h4a.75.75,0,0,1,0,1.5Zm0,0" transform="translate(-162.668 -325.332)" fill="#e9ebea"/>
</svg>
