<svg xmlns="http://www.w3.org/2000/svg" width="65" height="65" viewBox="0 0 65 65">
  <g id="moedas" transform="translate(0 0.004)">
    <g id="Grupo_26" data-name="Grupo 26" transform="translate(0 -0.004)">
      <g id="Grupo_25" data-name="Grupo 25">
        <path id="Caminho_69" data-name="Caminho 69" d="M43.588,15.075H41.751A4.417,4.417,0,0,0,42.258,13V6.68A4.03,4.03,0,0,0,38.4,2.5H3.857A4.031,4.031,0,0,0,0,6.68V13a4.03,4.03,0,0,0,3.857,4.175H5.692a4.417,4.417,0,0,0-.51,2.072v6.324a4.414,4.414,0,0,0,.51,2.072H3.857A4.029,4.029,0,0,0,0,31.82v6.324a4.172,4.172,0,0,0,2.587,3.941,4.4,4.4,0,0,0-.642,2.3v6.324a4.4,4.4,0,0,0,.642,2.3A4.173,4.173,0,0,0,0,56.963v6.324a4.03,4.03,0,0,0,3.857,4.175H33.483a1.06,1.06,0,0,0,0-2.1H3.857a2,2,0,0,1-1.914-2.074V56.963a2,2,0,0,1,1.914-2.072H22.645a1.06,1.06,0,0,0,0-2.1H5.8a2,2,0,0,1-1.914-2.072V44.392A2,2,0,0,1,5.8,42.32H20.874a1.06,1.06,0,0,0,0-2.1H3.857a2,2,0,0,1-1.914-2.072V31.82a2,2,0,0,1,1.914-2.07H26.379a.956.956,0,0,0,.879-.511,1.128,1.128,0,0,0,0-1.08.956.956,0,0,0-.879-.511H9.038a2,2,0,0,1-1.914-2.072V19.25a2,2,0,0,1,1.914-2.072H43.588A2,2,0,0,1,45.5,19.25v.784a.972.972,0,1,0,1.942,0V19.25a4.03,4.03,0,0,0-3.857-4.175ZM40.32,13a2,2,0,0,1-1.912,2.074H3.857A2,2,0,0,1,1.942,13V6.68A2,2,0,0,1,3.857,4.608H38.407a2,2,0,0,1,1.914,2.072Z" transform="translate(0 -2.5)" fill="#fff"/>
      </g>
    </g>
    <g id="Grupo_28" data-name="Grupo 28" transform="translate(22.69 22.684)">
      <g id="Grupo_27" data-name="Grupo 27">
        <path id="Caminho_70" data-name="Caminho 70" d="M55.393,23.66a.972.972,0,0,0-1.062,1.626,19.089,19.089,0,1,1-2.5-1.375.971.971,0,0,0,.807-1.767A21.152,21.152,0,1,0,55.39,23.66Z" transform="translate(-22.68 -20.221)" fill="#fff"/>
      </g>
    </g>
    <g id="Grupo_30" data-name="Grupo 30" transform="translate(28.653 28.601)">
      <g id="Grupo_29.5" data-name="Grupo 29.5" transform="translate(0.943 0.758)">
        <circle id="Elipse_14" data-name="Elipse 14" cx="14.344" cy="14.344" r="14.344" fill="#b3f700"/>
        <path id="Caminho_95" data-name="Caminho 95" d="M331.6,67.9a4.643,4.643,0,0,1-.667-.286l-.285-.192V67.04l.191-1.81.1-.667.571.286c.1,0,.19.1.286.1s.19.1.286.1a1.765,1.765,0,0,0,.667.19c.19.1.476.1.667.19.19,0,.381.1.571.1a1.208,1.208,0,0,1,.571.1h.762a.718.718,0,0,0,.476-.1h0c.19,0,.286-.1.476-.19h0a1.317,1.317,0,0,0,.381-.286h0a1.316,1.316,0,0,0,.286-.381h0c.1-.1.1-.286.19-.381V63.8h0a.858.858,0,0,0-.095-.476h0c-.1-.1-.1-.286-.19-.381l-.286-.286a1.314,1.314,0,0,0-.381-.286.723.723,0,0,0-.381-.19c-.1-.095-.286-.095-.476-.19h0a3.379,3.379,0,0,1-.857-.381h0c-.286-.1-.572-.286-.857-.381a2.072,2.072,0,0,1-.762-.476c-.19-.19-.476-.286-.667-.571h0l-.571-.571h0c-.19-.19-.286-.476-.476-.667h0l-.286-.857a2.636,2.636,0,0,1-.1-.857h0a3.9,3.9,0,0,1,.1-1.048c.1-.286.19-.667.286-.952a3.858,3.858,0,0,1,.476-.857,4.771,4.771,0,0,1,.667-.762h0c.286-.19.476-.381.762-.571h0a3.379,3.379,0,0,1,.857-.381h.1V50.57h2.47v2h.19c.19,0,.286.1.476.1a4.124,4.124,0,0,1,.476.1c.1,0,.286.095.381.095h0c.1,0,.191.1.381.1l.381.1-.1.381-.191,1.715-.1.571-.571-.19c-.1,0-.19-.1-.381-.1h0c-.1,0-.19-.1-.381-.1h0c-.19,0-.381-.1-.571-.1s-.381-.1-.571-.1h-.762a1.209,1.209,0,0,0-.571.1h0c-.19.1-.286.1-.476.19-.1.1-.286.19-.381.286a.718.718,0,0,0-.19.381h0a.717.717,0,0,0-.1.476v.476c0,.19.1.286.1.476.1.1.1.286.19.381h0l.286.286h0c.1.1.286.19.381.286h0c.1.1.286.1.381.19.19.1.286.1.476.19h0a3.379,3.379,0,0,1,.857.381c.286.1.571.286.857.381a3.343,3.343,0,0,1,.762.476,4.145,4.145,0,0,1,.667.571l.571.571h0a2.39,2.39,0,0,1,.381.667,6.552,6.552,0,0,0,.286.762h0a2.637,2.637,0,0,1,.1.857h0a3.9,3.9,0,0,1-.1,1.048h0c-.1.381-.19.667-.286.952a3.866,3.866,0,0,1-.476.857,2.224,2.224,0,0,1-.667.667h0l-.857.571a3.979,3.979,0,0,1-.952.381h-.1v2.1h-2.47v-2h-.19c-.286,0-.571-.1-.857-.1-.286-.1-.571-.1-.762-.19h0c.1.19-.19.1-.381.1" transform="translate(-320.831 -45.855)"/>
      </g>
      <g id="Grupo_29" data-name="Grupo 29">
        <path id="Caminho_71" data-name="Caminho 71" d="M54.638,30.6A15.226,15.226,0,0,0,29.176,45.352a.972.972,0,0,0,1.876-.507,13.241,13.241,0,1,1,1.1,2.781.971.971,0,0,0-1.713.91,15.226,15.226,0,1,0,24.2-17.94Z" transform="translate(-28.644 -26.139)" fill="#fff"/>
      </g>
    </g>
  </g>
</svg>
