<svg xmlns="http://www.w3.org/2000/svg" width="65" height="64.999" viewBox="0 0 65 64.999">
  <g id="rich" transform="translate(0 0)">
    <path id="Caminho_82.10" data-name="Caminho 82.10" d="M6.276,0l6.276,6.276H0Z" transform="translate(26.433 0.896)" fill="#b3f700"/>
    <rect id="Caminho_82.5" data-name="Caminho 82.5" width="5.379" height="9.862" transform="translate(30.019 6.275)" fill="#b3f700"/>
    <circle id="Caminho_94.5" data-name="Caminho 94.5" cx="11.207" cy="11.207" r="11.207" transform="translate(21.95 37.654)" fill="#b3f700"/>
    <path id="Caminho_82" data-name="Caminho 82" d="M27.083,10.833h3.25v7.583A1.083,1.083,0,0,0,31.416,19.5h6.5A1.083,1.083,0,0,0,39,18.417V10.833h3.25a1.083,1.083,0,0,0,.7-1.905l-7.583-6.5a1.083,1.083,0,0,0-1.408,0l-7.583,6.5a1.083,1.083,0,0,0,.7,1.905Zm7.583-6.157,4.662,3.99H37.917a1.083,1.083,0,0,0-1.083,1.083v7.583H32.5V9.75a1.083,1.083,0,0,0-1.083-1.083H30.008Z" transform="translate(-2.167 -2.168)" fill="#fff"/>
    <path id="Caminho_83" data-name="Caminho 83" d="M30.333,21.667H39v2.167H30.333Z" transform="translate(-2.167 -2.168)" fill="#fff"/>
    <path id="Caminho_84" data-name="Caminho 84" d="M30.333,26H39v2.167H30.333Z" transform="translate(-2.167 -2.168)" fill="#fff"/>
    <path id="Caminho_85" data-name="Caminho 85" d="M30.333,30.333H39V32.5H30.333Z" transform="translate(-2.167 -2.168)" fill="#fff"/>
    <path id="Caminho_86" data-name="Caminho 86" d="M50.917,15.167h3.25V22.75a1.083,1.083,0,0,0,1.083,1.083h6.5a1.083,1.083,0,0,0,1.083-1.083V15.167h3.25a1.083,1.083,0,0,0,.7-1.905L59.2,6.762a1.083,1.083,0,0,0-1.408,0l-7.583,6.5a1.083,1.083,0,0,0,.7,1.905ZM58.5,9.01,63.162,13H61.75a1.083,1.083,0,0,0-1.083,1.083v7.583H56.333V14.083A1.083,1.083,0,0,0,55.25,13H53.842Z" transform="translate(-2.167 -2.168)" fill="#fff"/>
    <path id="Caminho_87" data-name="Caminho 87" d="M54.167,26h8.667v2.167H54.167Z" transform="translate(-2.167 -2.168)" fill="#fff"/>
    <path id="Caminho_88" data-name="Caminho 88" d="M54.167,30.333h8.667V32.5H54.167Z" transform="translate(-2.167 -2.168)" fill="#fff"/>
    <path id="Caminho_89" data-name="Caminho 89" d="M3.25,15.167H6.5V22.75a1.083,1.083,0,0,0,1.083,1.083h6.5a1.083,1.083,0,0,0,1.083-1.083V15.167h3.25a1.083,1.083,0,0,0,.7-1.905l-7.583-6.5a1.083,1.083,0,0,0-1.408,0l-7.582,6.5a1.083,1.083,0,0,0,.7,1.905ZM10.833,9.01,15.5,13H14.083A1.083,1.083,0,0,0,13,14.083v7.583H8.667V14.083A1.083,1.083,0,0,0,7.583,13H6.175Z" transform="translate(-2.167 -2.168)" fill="#fff"/>
    <path id="Caminho_90" data-name="Caminho 90" d="M6.5,26h8.667v2.167H6.5Z" transform="translate(-2.167 -2.168)" fill="#fff"/>
    <path id="Caminho_91" data-name="Caminho 91" d="M6.5,30.333h8.667V32.5H6.5Z" transform="translate(-2.167 -2.168)" fill="#fff"/>
    <path id="Caminho_92" data-name="Caminho 92" d="M63.917,34.667H5.417a3.26,3.26,0,0,0-3.25,3.25v26a3.26,3.26,0,0,0,3.25,3.25h58.5a3.26,3.26,0,0,0,3.25-3.25v-26A3.26,3.26,0,0,0,63.917,34.667ZM4.333,37.917a1.083,1.083,0,0,1,1.083-1.083H7.432a4.352,4.352,0,0,1-3.1,3.1ZM5.417,65a1.083,1.083,0,0,1-1.083-1.083V61.9a4.352,4.352,0,0,1,3.1,3.1ZM65,63.917A1.083,1.083,0,0,1,63.917,65H61.9A4.352,4.352,0,0,1,65,61.9Zm0-4.236A6.491,6.491,0,0,0,59.681,65H9.653a6.491,6.491,0,0,0-5.319-5.319V42.152a6.491,6.491,0,0,0,5.319-5.319H59.681A6.491,6.491,0,0,0,65,42.152Zm0-19.749a4.352,4.352,0,0,1-3.1-3.1h2.015A1.083,1.083,0,0,1,65,37.917Z" transform="translate(-2.167 -2.168)" fill="#fff"/>
    <path id="Caminho_93" data-name="Caminho 93" d="M35.75,43.333H33.583V45.5a2.167,2.167,0,0,0-2.167,2.167v2.167A2.167,2.167,0,0,0,33.583,52H35.75v2.167H31.417v2.167h2.167V58.5h2.167V56.333a2.167,2.167,0,0,0,2.167-2.167V52a2.167,2.167,0,0,0-2.167-2.167H33.583V47.667h4.333V45.5H35.75Z" transform="translate(-2.167 -2.168)"/>
    <path id="Caminho_94" data-name="Caminho 94" d="M34.667,39A11.917,11.917,0,1,0,46.583,50.917,11.917,11.917,0,0,0,34.667,39Zm0,21.667a9.75,9.75,0,1,1,9.75-9.75,9.75,9.75,0,0,1-9.75,9.75Z" transform="translate(-2.167 -2.168)" fill="#fff"/>
  </g>
</svg>
