<svg xmlns="http://www.w3.org/2000/svg" width="20.081" height="16.319" viewBox="0 0 20.081 16.319">
  <path id="Twitter" d="M20.081,4.18a8.225,8.225,0,0,1-2.366.648,4.126,4.126,0,0,0,1.811-2.279,8.253,8.253,0,0,1-2.616,1A4.122,4.122,0,0,0,9.889,7.306,11.7,11.7,0,0,1,1.4,3,4.125,4.125,0,0,0,2.672,8.5,4.1,4.1,0,0,1,.807,7.987a4.123,4.123,0,0,0,3.3,4.091,4.129,4.129,0,0,1-1.861.07A4.123,4.123,0,0,0,6.1,15.009,8.283,8.283,0,0,1,0,16.716a11.663,11.663,0,0,0,6.315,1.851A11.651,11.651,0,0,0,18.025,6.313,8.388,8.388,0,0,0,20.081,4.18Z" transform="translate(0 -2.248)" fill="#b3f700"/>
</svg>
